<?xml version="1.0" encoding="utf-8"?>
<svg width="72px" height="36px" viewBox="0 0 72 36" version="1.1" xmlns:xlink="http://www.w3.org/1999/xlink" xmlns="http://www.w3.org/2000/svg">
  <desc>Created with Lunacy</desc>
  <path d="M0.999 0L52.001 0Q52.4919 0 52.9823 0.0240897Q53.4727 0.0481793 53.9612 0.0963006Q54.4498 0.144422 54.9355 0.216459Q55.4211 0.288496 55.9026 0.384275Q56.3841 0.480054 56.8604 0.599345Q57.3366 0.718635 57.8064 0.86115Q58.2762 1.00366 58.7385 1.16906Q59.2007 1.33446 59.6543 1.52233Q60.1079 1.71021 60.5517 1.92012Q60.9955 2.13003 61.4285 2.36146Q61.8614 2.59289 62.2825 2.84529Q62.7036 3.09768 63.1118 3.37044Q63.5201 3.64319 63.9144 3.93565Q64.3087 4.22811 64.6882 4.53956Q65.0677 4.85102 65.4315 5.18072Q65.7953 5.51042 66.1424 5.85757Q66.4896 6.20472 66.8193 6.56849Q67.149 6.93226 67.4604 7.31177Q67.7719 7.69128 68.0643 8.08561Q68.3568 8.47994 68.6295 8.88815Q68.9023 9.29636 69.1547 9.71746Q69.4071 10.1386 69.6385 10.5715Q69.87 11.0045 70.0799 11.4483Q70.2898 11.8921 70.4777 12.3457Q70.6655 12.7993 70.8309 13.2615Q70.9963 13.7238 71.1388 14.1936Q71.2813 14.6634 71.4006 15.1396Q71.5199 15.6159 71.6157 16.0974Q71.7115 16.5789 71.7835 17.0645Q71.8556 17.5502 71.9037 18.0388Q71.9518 18.5273 71.9759 19.0177Q72 19.5081 72 19.999L72 52.001Q72 52.4919 71.9759 52.9823Q71.9518 53.4727 71.9037 53.9612Q71.8556 54.4498 71.7835 54.9355Q71.7115 55.4211 71.6157 55.9026Q71.5199 56.3841 71.4006 56.8604Q71.2813 57.3366 71.1388 57.8064Q70.9963 58.2762 70.8309 58.7385Q70.6655 59.2007 70.4777 59.6543Q70.2898 60.1079 70.0799 60.5517Q69.87 60.9955 69.6385 61.4285Q69.4071 61.8614 69.1547 62.2825Q68.9023 62.7036 68.6295 63.1118Q68.3568 63.5201 68.0643 63.9144Q67.7719 64.3087 67.4604 64.6882Q67.149 65.0677 66.8193 65.4315Q66.4896 65.7953 66.1424 66.1424Q65.7953 66.4896 65.4315 66.8193Q65.0677 67.149 64.6882 67.4604Q64.3087 67.7719 63.9144 68.0643Q63.5201 68.3568 63.1118 68.6295Q62.7036 68.9023 62.2825 69.1547Q61.8614 69.4071 61.4285 69.6385Q60.9955 69.87 60.5517 70.0799Q60.1079 70.2898 59.6543 70.4777Q59.2007 70.6655 58.7385 70.8309Q58.2762 70.9963 57.8064 71.1388Q57.3366 71.2813 56.8604 71.4006Q56.3841 71.5199 55.9026 71.6157Q55.4211 71.7115 54.9355 71.7835Q54.4498 71.8556 53.9612 71.9037Q53.4727 71.9518 52.9823 71.9759Q52.4919 72 52.001 72L0 72L0 0.999Q0 0.900607 0.0191955 0.804105Q0.038391 0.707602 0.0760443 0.616699Q0.113698 0.525796 0.168362 0.443985Q0.223026 0.362175 0.2926 0.2926Q0.362175 0.223026 0.443985 0.168362Q0.525796 0.113698 0.616699 0.0760443Q0.707602 0.038391 0.804105 0.0191955Q0.900607 0 0.999 0Z" transform="matrix(-1 0 0 1 72 0)" id="Rectangle-Copy-3" fill="#9277FF" stroke="none" />
</svg>